<?xml version="1.0" encoding="utf-8"?>
<svg xmlns="http://www.w3.org/2000/svg" viewBox="0 0 80 80" width="160" height="160">
  <path fill="#ffadad" d="M35.3,77.5c-1.1,0-27.8-0.3-27.8-26.1c0-18.6,6.1-30.5,11.2-37.2C24.6,6.5,31.5,2.5,35.3,2.5 c3.8,0,5.2,2.7,5.2,5.2v64.6C40.5,75.2,38.2,77.5,35.3,77.5L35.3,77.5z" />
  <path fill="#c74343" d="M35.3,3C38.3,3,40,4.8,40,7.7v64.6c0,2.6-2.1,4.7-4.7,4.7c-0.1,0-6.9,0-13.7-3.2 C12.6,69.5,8,62,8,51.4C8,33,14.1,21.2,19.1,14.5C25.5,6.1,32.3,3,35.3,3 M35.3,2C27.8,2,7,17.2,7,51.4C7,78,35.3,78,35.3,78 c3.1,0,5.7-2.6,5.7-5.7V7.7C41,4.6,39.1,2,35.3,2L35.3,2z" />
  <path fill="#c74343" d="M30,36h-4c-0.6,0-1-0.4-1-1s0.4-1,1-1h4c1.7,0,3-1.3,3-3s-1.3-3-3-3h-4c-0.6,0-1-0.4-1-1s0.4-1,1-1h4 c2.8,0,5,2.2,5,5S32.8,36,30,36z" />
  <path fill="#c74343" d="M30 28h-4c-2.8 0-5-2.2-5-5s2.2-5 5-5h4c.6 0 1 .4 1 1s-.4 1-1 1h-4c-1.7 0-3 1.3-3 3s1.3 3 3 3h4c.6 0 1 .4 1 1S30.6 28 30 28zM26 64h-4c-2.8 0-5-2.2-5-5s2.2-5 5-5h4c.6 0 1 .4 1 1s-.4 1-1 1h-4c-1.7 0-3 1.3-3 3s1.3 3 3 3h4c.6 0 1 .4 1 1S26.6 64 26 64z" />
  <path fill="#c74343" d="M31 70h-3c-.6 0-1-.4-1-1s.4-1 1-1h3c1.1 0 2-.9 2-2s-.9-2-2-2h-7.5c-.6 0-1-.4-1-1s.4-1 1-1H31c2.2 0 4 1.8 4 4S33.2 70 31 70zM31 20h-3c-.6 0-1-.4-1-1s.4-1 1-1h3c1.1 0 2-.9 2-2s-.9-2-2-2h-3c-.6 0-1-.4-1-1s.4-1 1-1h3c2.2 0 4 1.8 4 4S33.2 20 31 20zM29 56h-5c-.6 0-1-.4-1-1s.4-1 1-1h5c2.2 0 4-1.8 4-4s-1.8-4-4-4h-5c-.6 0-1-.4-1-1s.4-1 1-1h5c3.3 0 6 2.7 6 6S32.3 56 29 56z" />
  <path fill="#c74343" d="M26,46h-5c-3.3,0-6-2.7-6-6s2.7-6,6-6h7.5c0.6,0,1,0.4,1,1s-0.4,1-1,1H21c-2.2,0-4,1.8-4,4 c0,2.2,1.8,4,4,4h5c0.6,0,1,0.4,1,1S26.6,46,26,46z" />
  <path fill="#ffadad" d="M45.7,77.5c-2.8,0-5.2-2.3-5.2-5.2V7.7c0-2.5,1.4-5.2,5.2-5.2c3.8,0,10.8,4,16.6,11.7 c5.1,6.7,11.2,18.7,11.2,37.2C73.5,77.2,45.9,77.5,45.7,77.5z" />
  <path fill="#c74343" d="M45.7,3c3,0,9.8,3.1,16.2,11.5C66.9,21.2,73,33,73,51.4c0,10.6-4.6,18.1-13.5,22.3 C52.7,77,45.7,77,45.7,77c-2.6,0-4.7-2.1-4.7-4.7V7.7C41,4.8,42.7,3,45.7,3 M45.7,2C41.9,2,40,4.6,40,7.7v64.6 c0,3.1,2.5,5.7,5.7,5.7c0,0,28.3,0,28.3-26.6C74,17.2,53.2,2,45.7,2L45.7,2z" />
  <path fill="#c74343" d="M55,36h-4c-2.8,0-5-2.2-5-5s2.2-5,5-5h4c0.6,0,1,0.4,1,1s-0.4,1-1,1h-4c-1.7,0-3,1.3-3,3s1.3,3,3,3h4 c0.6,0,1,0.4,1,1S55.6,36,55,36z" />
  <path fill="#c74343" d="M55 28h-4c-.6 0-1-.4-1-1s.4-1 1-1h4c1.7 0 3-1.3 3-3s-1.3-3-3-3h-4c-.6 0-1-.4-1-1s.4-1 1-1h4c2.8 0 5 2.2 5 5S57.8 28 55 28zM59 64h-4c-.6 0-1-.4-1-1s.4-1 1-1h4c1.7 0 3-1.3 3-3s-1.3-3-3-3h-4c-.6 0-1-.4-1-1s.4-1 1-1h4c2.8 0 5 2.2 5 5S61.8 64 59 64z" />
  <path fill="#c74343" d="M53 70h-3c-2.2 0-4-1.8-4-4s1.8-4 4-4h7.5c.6 0 1 .4 1 1s-.4 1-1 1H50c-1.1 0-2 .9-2 2s.9 2 2 2h3c.6 0 1 .4 1 1S53.6 70 53 70zM53 20h-3c-2.2 0-4-1.8-4-4s1.8-4 4-4h3c.6 0 1 .4 1 1s-.4 1-1 1h-3c-1.1 0-2 .9-2 2s.9 2 2 2h3c.6 0 1 .4 1 1S53.6 20 53 20zM57 56h-5c-3.3 0-6-2.7-6-6s2.7-6 6-6h5c.6 0 1 .4 1 1s-.4 1-1 1h-5c-2.2 0-4 1.8-4 4s1.8 4 4 4h5c.6 0 1 .4 1 1S57.6 56 57 56z" />
  <path fill="#c74343" d="M60,46h-5c-0.6,0-1-0.4-1-1s0.4-1,1-1h5c2.2,0,4-1.8,4-4c0-2.2-1.8-4-4-4h-7.5c-0.6,0-1-0.4-1-1 s0.4-1,1-1H60c3.3,0,6,2.7,6,6S63.3,46,60,46z" />
</svg>